<?xml version="1.0" encoding="iso-8859-1"?>
<!-- Generator: Adobe Illustrator 17.1.0, SVG Export Plug-In . SVG Version: 6.00 Build 0)  -->
<!DOCTYPE svg PUBLIC "-//W3C//DTD SVG 1.1//EN" "http://www.w3.org/Graphics/SVG/1.1/DTD/svg11.dtd">
<svg version="1.1" id="Capa_1" xmlns="http://www.w3.org/2000/svg" xmlns:xlink="http://www.w3.org/1999/xlink" x="0px" y="0px"
	 viewBox="0 0 123.604 123.604" style="enable-background:new 0 0 123.604 123.604;" xml:space="preserve">
<g>
	<path d="M75.497,53.268c5.975,0,10.836-4.861,10.836-10.836s-4.861-10.836-10.836-10.836c-5.975,0-10.835,4.861-10.835,10.836
		S69.522,53.268,75.497,53.268z"/>
	<path d="M97.567,85.604L88.79,58.406c-0.47-1.456-2.036-2.596-3.566-2.596h-1.312h-0.938H68.703
		c-0.007-0.008-0.012-0.018-0.019-0.026L53.157,38.176c-0.594-0.674-1.467-0.97-2.317-0.912l-4.367-20.249
		c1.457-0.942,2.433-3.07,2.823-4.075c0.934-2.404,1.245-4.944,0.833-6.796C49.335,2.584,46.367,0,43.07,0
		c-0.459,0-0.921,0.051-1.371,0.151c-1.828,0.407-3.363,1.583-4.321,3.312c-0.937,1.689-1.209,3.71-0.768,5.691
		c0.791,3.555,4.99,7.876,7.911,8.3l4.458,20.67l-0.824,0.882l-8.775-11.542c0.986-1.411,1.123-3.708,1.123-4.772
		c0-2.579-0.63-5.06-1.685-6.637c-1.511-2.259-3.92-3.607-6.444-3.607c-1.294,0-2.533,0.371-3.583,1.074
		c-3.173,2.123-3.838,6.714-1.483,10.234c1.879,2.811,6.573,4.99,9.358,4.99c0.396,0,0.757-0.042,1.082-0.124l9.109,11.981
		c-0.568,1.14-0.446,2.598,0.404,3.582l16.335,18.894c0.149,0.172,0.313,0.314,0.485,0.439v25.417v0.503v29.166c0,2.757,2.243,5,5,5
		h0.353c2.757,0,5-2.243,5-5V92.438h2.126v26.166c0,2.757,2.243,5,5,5h0.353c2.757,0,5-2.243,5-5V89.438v-0.503V78.467l2.501,7.752
		c0.47,1.456,2.036,2.596,3.566,2.596h2.25c0.848,0,1.591-0.354,2.041-0.971S97.827,86.411,97.567,85.604z"/>
</g>
<g>
</g>
<g>
</g>
<g>
</g>
<g>
</g>
<g>
</g>
<g>
</g>
<g>
</g>
<g>
</g>
<g>
</g>
<g>
</g>
<g>
</g>
<g>
</g>
<g>
</g>
<g>
</g>
<g>
</g>
</svg>
