<?xml version="1.0" encoding="iso-8859-1"?>
<!-- Generator: Adobe Illustrator 17.1.0, SVG Export Plug-In . SVG Version: 6.00 Build 0)  -->
<!DOCTYPE svg PUBLIC "-//W3C//DTD SVG 1.1//EN" "http://www.w3.org/Graphics/SVG/1.1/DTD/svg11.dtd">
<svg version="1.1" id="Capa_1" xmlns="http://www.w3.org/2000/svg" xmlns:xlink="http://www.w3.org/1999/xlink" x="0px" y="0px"
	 viewBox="0 0 337.567 337.567" style="enable-background:new 0 0 337.567 337.567;" xml:space="preserve">
<path d="M224.188,101.421c2.444-2.019,4.004-5.072,4.004-8.482v-9.706c0-6.065-4.935-11-11-11h-6.482l26.495-32.412
	c2.163-2.647,2.206-6.675,0.099-9.37L216.208,3.494C214.574,1.404,211.692,0,209.039,0h-81.632c-2.707,0-5.604,1.463-7.211,3.639
	L100.133,30.81c-2.009,2.721-1.937,6.615,0.17,9.258l25.613,32.165h-5.54c-6.065,0-11,4.935-11,11v9.706
	c0,3.41,1.56,6.463,4.004,8.482C72.411,121.849,44.2,164.18,44.2,212.984c0,68.695,55.888,124.583,124.584,124.583
	s124.584-55.888,124.584-124.583C293.368,164.18,265.156,121.849,224.188,101.421z M168.784,307.567
	c-52.153,0-94.584-42.43-94.584-94.583c0-52.154,42.431-94.584,94.584-94.584s94.584,42.43,94.584,94.584
	C263.368,265.137,220.937,307.567,168.784,307.567z"/>
<g>
</g>
<g>
</g>
<g>
</g>
<g>
</g>
<g>
</g>
<g>
</g>
<g>
</g>
<g>
</g>
<g>
</g>
<g>
</g>
<g>
</g>
<g>
</g>
<g>
</g>
<g>
</g>
<g>
</g>
</svg>
